<svg width="89" height="23" viewBox="0 0 89 23" fill="none" xmlns="http://www.w3.org/2000/svg">
<path d="M8.02 1.296H12.5V18.096C12.5 20.912 11.1773 22.32 8.532 22.32H4.82C2.17467 22.32 0.852 20.912 0.852 18.096V15.504H5.108V18.608C5.108 18.7787 5.16133 18.928 5.268 19.056C5.396 19.184 5.54533 19.248 5.716 19.248H7.412C7.58267 19.248 7.72133 19.184 7.828 19.056C7.956 18.928 8.02 18.7787 8.02 18.608V1.296ZM13.5945 5.104V1.296H24.7945V5.104H21.4345V22H16.9545V5.104H13.5945ZM32.505 13.776V10.48H38.425V18.096C38.425 20.912 37.1023 22.32 34.457 22.32H30.425C27.7797 22.32 26.457 20.912 26.457 18.096V5.2C26.457 2.384 27.7797 0.976 30.425 0.976H34.457C37.1023 0.976 38.425 2.384 38.425 5.2V7.152H34.169V4.656C34.169 4.48533 34.105 4.336 33.977 4.208C33.8703 4.08 33.7317 4.016 33.561 4.016H31.545C31.3743 4.016 31.225 4.08 31.097 4.208C30.9903 4.336 30.937 4.48533 30.937 4.656V18.608C30.937 18.7787 30.9903 18.928 31.097 19.056C31.225 19.184 31.3743 19.248 31.545 19.248H33.561C33.7317 19.248 33.8703 19.184 33.977 19.056C34.105 18.928 34.169 18.7787 34.169 18.608V13.776H32.505ZM47.9345 6.064C50.5798 6.064 51.9025 7.472 51.9025 10.288V15.344H44.6385V18.608C44.6385 18.7787 44.6918 18.928 44.7985 19.056C44.9265 19.184 45.0758 19.248 45.2465 19.248H47.0065C47.1772 19.248 47.3158 19.184 47.4225 19.056C47.5505 18.928 47.6145 18.7787 47.6145 18.608V16.88H51.9025V18.096C51.9025 20.912 50.5798 22.32 47.9345 22.32H44.3185C41.6732 22.32 40.3505 20.912 40.3505 18.096V10.288C40.3505 7.472 41.6732 6.064 44.3185 6.064H47.9345ZM44.6385 12.528H47.6145V9.648C47.6145 9.47733 47.5505 9.328 47.4225 9.2C47.3158 9.072 47.1772 9.008 47.0065 9.008H45.2465C45.0758 9.008 44.9265 9.072 44.7985 9.2C44.6918 9.328 44.6385 9.47733 44.6385 9.648V12.528ZM61.8088 6.384H65.4248V22H61.8088V20.848C61.1474 21.8293 60.0488 22.32 58.5128 22.32H57.8408C55.1954 22.32 53.8728 20.912 53.8728 18.096V10.288C53.8728 7.472 55.1954 6.064 57.8408 6.064H58.5128C60.0488 6.064 61.1474 6.55467 61.8088 7.536V6.384ZM61.1368 18.608V9.776C61.1368 9.60533 61.0728 9.456 60.9448 9.328C60.8381 9.2 60.6994 9.136 60.5288 9.136H58.7688C58.5981 9.136 58.4488 9.2 58.3208 9.328C58.2141 9.456 58.1608 9.60533 58.1608 9.776V18.608C58.1608 18.7787 58.2141 18.928 58.3208 19.056C58.4488 19.184 58.5981 19.248 58.7688 19.248H60.5288C60.6994 19.248 60.8381 19.184 60.9448 19.056C61.0728 18.928 61.1368 18.7787 61.1368 18.608ZM73.6535 19.536H74.9335V22.32H71.9255C69.2802 22.32 67.9575 20.912 67.9575 18.096V2.992H72.2455V6.384H74.9335V9.488H72.2455V18C72.2455 18.5973 72.3628 19.0027 72.5975 19.216C72.8322 19.4293 73.1842 19.536 73.6535 19.536ZM84.1522 12.208C86.7976 12.208 88.1202 13.616 88.1202 16.432V18.096C88.1202 20.912 86.7976 22.32 84.1522 22.32H80.6002C77.9549 22.32 76.6322 20.912 76.6322 18.096V17.104H80.6002V18.512C80.6002 18.6827 80.6536 18.832 80.7602 18.96C80.8882 19.088 81.0376 19.152 81.2082 19.152H83.8322C84.0029 19.152 84.1416 19.088 84.2483 18.96C84.3762 18.832 84.4402 18.6827 84.4402 18.512V16.592C84.4402 16.4213 84.3762 16.272 84.2483 16.144C84.1416 16.016 84.0029 15.952 83.8322 15.952H80.5362C77.8909 15.952 76.5682 14.544 76.5682 11.728V10.288C76.5682 7.472 77.8909 6.064 80.5362 6.064H83.8962C86.5416 6.064 87.8643 7.472 87.8643 10.288V10.864H83.8962V9.872C83.8962 9.70133 83.8322 9.552 83.7042 9.424C83.5976 9.296 83.4589 9.232 83.2882 9.232H80.8562C80.6856 9.232 80.5362 9.296 80.4082 9.424C80.3016 9.552 80.2482 9.70133 80.2482 9.872V11.568C80.2482 11.7387 80.3016 11.888 80.4082 12.016C80.5362 12.144 80.6856 12.208 80.8562 12.208H84.1522Z" fill="white"/>
</svg>
